<svg xmlns="http://www.w3.org/2000/svg" version="1.1" viewBox="-5.0 -10.0 110.0 135.0">
 <path d="m81.734 41.219c-10.074 0-18.266-8.1953-18.266-18.266s8.1953-18.266 18.266-18.266 18.266 8.1953 18.266 18.266c0 10.074-8.1953 18.266-18.266 18.266zm0-4.1953c-0.64844 0-1.1719-0.52344-1.1719-1.1719v-2.0977c-2.7734-0.54688-4.8711-2.9961-4.8711-5.9297 0-0.64844 0.52734-1.1719 1.1719-1.1719s1.1719 0.52344 1.1719 1.1719c0 1.6328 1.0625 3.0195 2.5273 3.5117v-7.4648c-2.2812-0.60156-4.875-1.7031-4.875-5.7891 0-2.9336 2.0977-5.3828 4.875-5.9297v-2.0977c0-0.64844 0.52734-1.1719 1.1719-1.1719s1.1719 0.52344 1.1719 1.1719v2.0977c2.7734 0.54688 4.8711 2.9961 4.8711 5.9297 0 0.64844-0.52734 1.1719-1.1719 1.1719s-1.1719-0.52344-1.1719-1.1719c0-1.6289-1.0586-3.0195-2.5273-3.5078v7.4648c2.2812 0.60156 4.8711 1.7031 4.8711 5.7891 0 2.9336-2.0977 5.3828-4.8711 5.9297v2.0977c0 0.64844-0.52344 1.1719-1.1719 1.1719zm-1.1719-15.59v-6.8594c-1.4688 0.49219-2.5273 1.8789-2.5273 3.5078 0 2.1172 0.86328 2.8359 2.5273 3.3516zm2.3438 3.0391v6.8594c1.4648-0.49219 2.5273-1.8789 2.5273-3.5117 0-2.1172-0.85938-2.832-2.5273-3.3516z" fill-rule="evenodd"/>
 <path d="m42.469 98.555c-2.9414 0-5.1367-1.2969-7.9961-2.9883-3.8906-2.2969-9.0859-5.3672-20.078-6.3164v-26.004c10.27-4.7578 26.375-1.4375 38.574 1.0781 2.9102 0.60156 5.6562 1.168 8.0195 1.5625 2.4727 0.41406 4.2656 1.8633 4.9453 3.8789l11.371-7.7422c3.9648-2.6992 8.1094-1.3945 9.9961 1.207 1.5859 2.1836 1.7891 5.6992-1.5156 8.2578-27.227 21.059-36.992 27.074-43.32 27.074z" fill-rule="evenodd"/>
 <path d="m9.5586 94.719h-7.0742c-1.3711 0-2.4844-1.1172-2.4844-2.4883v-29.402c0-1.3711 1.1172-2.4883 2.4844-2.4883h7.0742c1.3711 0 2.4844 1.1172 2.4844 2.4883v29.402c0 1.3711-1.1133 2.4883-2.4844 2.4883z" fill-rule="evenodd"/>
 <path d="m17.363 59.695v-27.391c0.96484-0.12109 1.9062-0.41016 2.7695-0.85547l28.473-14.676 12.516 6.4531c0.027344 1.9844 0.33203 3.9023 0.88281 5.7148-1.2188 0.23047-2.1445 1.3047-2.1445 2.5898v5.793c0 1.4531 1.1836 2.6328 2.6367 2.6328h5.793c0.47656 0 0.92578-0.12891 1.3086-0.35156 2.9297 2.1406 6.4414 3.5273 10.25 3.875v14.918c-1.3672 0.29297-2.6758 0.875-3.8633 1.6836l-2.9961 2.0391c-2.9844 0.16406-6.9297 0.34375-11.336 0.52734v-16.461h0.89062c0.64844 0 1.1719-0.52344 1.1719-1.1719s-0.52344-1.1719-1.1719-1.1719h-27.879c-0.64844 0-1.1719 0.52344-1.1719 1.1719s0.52344 1.1719 1.1719 1.1719h0.89063v12.754c-5.8164-0.63672-12.398-0.81641-18.191 0.75391zm17.352-19.742h-5.793c-1.4531 0-2.6367-1.1836-2.6367-2.6328v-5.793c0-1.4531 1.1836-2.6367 2.6367-2.6367h5.793c1.4531 0 2.6328 1.1836 2.6328 2.6367v5.793c0 1.4531-1.1797 2.6328-2.6328 2.6328zm-5.793-8.7188c-0.15625 0-0.29297 0.13281-0.29297 0.29297v5.793c0 0.15625 0.13281 0.28906 0.29297 0.28906h5.793c0.15625 0 0.28906-0.13281 0.28906-0.28906v-5.793c0-0.15625-0.13281-0.29297-0.28906-0.29297zm33.938 0c1.0547 2.3984 2.5547 4.5547 4.3945 6.3711h-4.7578c-0.15625 0-0.28906-0.13281-0.28906-0.28906v-5.793c0-0.15625 0.13281-0.29297 0.28906-0.29297h0.36328zm-14.254 3.7734c-4.1289 0-7.4883-3.3594-7.4883-7.4883 0-4.1289 3.3594-7.4883 7.4883-7.4883 4.1289 0 7.4883 3.3594 7.4883 7.4883 0 4.1289-3.3594 7.4883-7.4883 7.4883zm0-12.633c-2.8359 0-5.1445 2.3086-5.1445 5.1445 0 2.8359 2.3086 5.1445 5.1445 5.1445 2.8359 0 5.1445-2.3086 5.1445-5.1445 0-2.8359-2.3086-5.1445-5.1445-5.1445zm10.703 40.367-1.9727 0.078124c-1.3008-0.25781-2.6016-0.53125-3.8984-0.79687-1.2227-0.25-2.4414-0.50391-3.6641-0.75v-15.09h9.5312v16.555zm-21.41-16.555h9.5352v14.625c-2.8633-0.55469-5.7344-1.0625-8.625-1.4648-0.30078-0.042968-0.60156-0.082031-0.91016-0.125v-13.039z" fill-rule="evenodd"/>
 <path d="m16.336 30.023c-2.25 0-4.2852-1.2383-5.3125-3.2305-0.72656-1.4141-0.86328-3.0273-0.375-4.5469 0.48437-1.5195 1.5312-2.7578 2.9453-3.4844l32.281-16.637c1.75-0.90234 3.7148-0.90234 5.4648 0l14.645 7.5469c-2.5664 3.0391-4.2695 6.8242-4.7344 10.98l-12.645-6.5156-29.547 15.23c-0.83984 0.43359-1.7812 0.66016-2.7227 0.66016z" fill-rule="evenodd"/>
<text x="0.0" y="117.5" font-size="5.0" font-weight="bold" font-family="Arbeit Regular, Helvetica, Arial-Unicode, Arial, Sans-serif" fill="#000000">Created by Amir Ali</text><text x="0.0" y="122.5" font-size="5.0" font-weight="bold" font-family="Arbeit Regular, Helvetica, Arial-Unicode, Arial, Sans-serif" fill="#000000">from Noun Project</text></svg>